<?xml version="1.0" encoding="iso-8859-1"?>
<!-- Uploaded to: SVG Repo, www.svgrepo.com, Generator: SVG Repo Mixer Tools -->
<svg height="800px" width="800px" version="1.1" id="Layer_1" xmlns="http://www.w3.org/2000/svg" xmlns:xlink="http://www.w3.org/1999/xlink" 
	 viewBox="0 0 504.32 504.32" xml:space="preserve">
<g transform="translate(1 15)">
	<path style="fill:#AAB1BA;" d="M464.067,450.493h-102.4h-29.013v0.853c6.827,2.56,11.947,8.533,11.947,16.213v17.067h153.6V467.56
		c0-9.387-7.68-17.067-17.067-17.067H464.067c9.387,0,17.067-6.827,17.067-17.067c0-56.32-23.893-66.56-31.573-106.667
		c0,0-2.56-12.8-2.56-29.867h-68.267c0,17.067-2.56,29.867-2.56,29.867c-7.68,40.96-31.573,50.347-31.573,106.667
		c0,10.24,7.68,17.067,17.067,17.067H464.067L464.067,450.493z M412.867,160.36c28.16,0,51.2,23.04,51.2,51.2s-23.04,51.2-51.2,51.2
		c-28.16,0-51.2-23.04-51.2-51.2S384.707,160.36,412.867,160.36z M447,262.76c9.387,0,17.067,7.68,17.067,17.067
		s-7.68,17.067-17.067,17.067h-68.267c-9.387,0-17.067-7.68-17.067-17.067s7.68-17.067,17.067-17.067h34.133H447z"/>
	<path style="fill:#AAB1BA;" d="M310.467,450.493H191h-17.067c-4.267,0-7.68,1.707-11.093,4.267c-4.267,3.413-5.973,7.68-5.973,12.8
		v17.067H344.6V467.56c0-7.68-5.12-13.653-11.947-16.213c-1.707-0.853-3.413-0.853-5.12-0.853H310.467
		c9.387,0,17.067-6.827,17.067-17.067c0-60.587-27.307-81.067-33.28-157.867c0,0-0.853-21.333-0.853-29.867h-85.333
		c0,102.4-34.133,119.467-34.133,187.733c0,10.24,7.68,17.067,17.067,17.067H310.467L310.467,450.493z M311.32,126.227L293.4,211.56
		h-85.333l-16.213-85.333c0,0,25.6-17.067,59.733-17.067S311.32,126.227,311.32,126.227z M293.4,211.56
		c9.387,0,17.067,7.68,17.067,17.067s-7.68,17.067-17.067,17.067h-85.333c-9.387,0-17.067-7.68-17.067-17.067
		s7.68-17.067,17.067-17.067H293.4z"/>
	<path style="fill:#AAB1BA;" d="M37.4,450.493H20.333c-9.387,0-17.067,7.68-17.067,17.067v17.067h153.6V467.56
		c0-5.12,2.56-10.24,5.973-12.8l-3.413-4.267H139.8c9.387,0,17.067-6.827,17.067-17.067c0-56.32-23.893-66.56-31.573-106.667
		c0,0-2.56-12.8-2.56-29.867H54.467c0,17.067-2.56,29.867-2.56,29.867c-7.68,40.96-31.573,50.347-31.573,106.667
		C20.333,442.814,28.013,450.493,37.4,450.493z M88.6,160.36c28.16,0,51.2,23.04,51.2,51.2s-23.04,51.2-51.2,51.2
		s-51.2-23.04-51.2-51.2S60.44,160.36,88.6,160.36z M122.733,262.76c9.387,0,17.067,7.68,17.067,17.067s-7.68,17.067-17.067,17.067
		H54.467c-9.387,0-17.067-7.68-17.067-17.067s7.68-17.067,17.067-17.067H88.6H122.733z"/>
</g>
<path style="fill:#51565F;" d="M499.2,503.893H379.733c-2.56,0-4.267-1.707-4.267-4.267c0-2.56,1.707-4.267,4.267-4.267h115.2v-12.8
	c0-6.827-5.973-12.8-12.8-12.8h-104.96c-2.56,0-4.267-1.707-4.267-4.267c0-2.56,1.707-4.267,4.267-4.267h87.893
	c7.68,0,12.8-5.12,12.8-12.8c0-33.28-7.68-49.493-16.213-66.56c-5.973-11.093-11.093-23.04-14.507-40.107
	c-0.853-2.56,0.853-4.267,3.413-5.12c2.56-0.853,4.267,0.853,5.12,3.413c3.413,15.36,8.533,26.453,13.653,37.547
	c8.533,17.067,17.92,34.987,17.92,69.973c0,5.12-1.707,9.387-4.267,12.8c11.947,0,21.333,9.387,21.333,21.333v17.067
	C503.467,502.187,501.76,503.893,499.2,503.893z M345.6,503.893H157.867c-2.56,0-4.267-1.707-4.267-4.267V482.56
	c0-11.947,9.387-21.333,21.333-21.333c-2.56-3.413-4.267-7.68-4.267-12.8c0-31.573,6.827-52.053,14.507-75.093
	c8.533-26.453,18.773-55.467,19.627-109.227c-9.387-1.707-17.067-10.24-17.067-20.48c0-11.947,9.387-21.333,21.333-21.333h51.2
	c2.56,0,4.267,1.707,4.267,4.267s-1.707,4.267-4.267,4.267h-51.2c-6.827,0-12.8,5.973-12.8,12.8s5.973,12.8,12.8,12.8
	c2.56,0,4.267,1.707,4.267,4.267c0,57.173-10.24,87.893-19.627,116.053c-7.68,22.187-14.507,41.813-14.507,71.68
	c0,7.68,5.12,12.8,12.8,12.8c2.56,0,4.267,1.707,4.267,4.267s-1.707,4.267-4.267,4.267h-17.067c-6.827,0-12.8,5.973-12.8,12.8v12.8
	h179.2v-12.8c0-6.827-5.973-12.8-12.8-12.8h-102.4c-2.56,0-4.267-1.707-4.267-4.267c0-2.56,1.707-4.267,4.267-4.267h85.333
	c7.68,0,12.8-5.12,12.8-12.8c0-29.867-6.827-49.493-14.507-71.68c-7.68-22.187-16.213-46.933-18.773-85.333
	c0-2.56,1.707-4.267,4.267-4.267c1.707,0,4.267,1.707,4.267,4.267c2.56,37.547,11.093,60.587,17.92,82.773
	c7.68,22.187,14.507,43.52,14.507,75.093c0,5.12-1.707,9.387-4.267,12.8c11.947,0,21.333,9.387,21.333,21.333v17.067
	C349.867,502.187,348.16,503.893,345.6,503.893z M123.733,503.893H4.267c-2.56,0-4.267-1.707-4.267-4.267V482.56
	c0-11.947,9.387-21.333,21.333-21.333c-2.56-3.413-4.267-7.68-4.267-12.8c0-34.987,8.533-52.907,17.92-69.973
	C43.52,362.24,51.2,346.88,51.2,316.16c-9.387-1.707-17.067-10.24-17.067-20.48c0-11.947,9.387-21.333,21.333-21.333H89.6
	c25.6,0,46.933-21.333,46.933-46.933S115.2,180.48,89.6,180.48s-46.933,21.333-46.933,46.933c0,6.827,1.707,13.653,4.267,19.627
	c0.853,2.56,0,4.267-1.707,5.973c-2.56,0.853-4.267,0-5.973-1.707c-3.413-7.68-5.12-15.36-5.12-23.04
	c0-30.72,24.747-55.467,55.467-55.467s55.467,24.747,55.467,55.467c0,19.627-10.24,36.693-25.6,46.933h4.267
	c11.947,0,21.333,9.387,21.333,21.333c0,11.947-9.387,21.333-21.333,21.333H89.6c-2.56,0-4.267-1.707-4.267-4.267
	c0-2.56,1.707-4.267,4.267-4.267h34.133c6.827,0,12.8-5.973,12.8-12.8c0-6.827-5.973-12.8-12.8-12.8H55.466
	c-6.827,0-12.8,5.973-12.8,12.8c0,6.827,5.973,12.8,12.8,12.8c2.56,0,4.267,1.707,4.267,4.267c0,34.987-8.533,52.907-17.92,69.973
	C33.28,400.64,25.6,416.853,25.6,450.133c0,7.68,5.12,12.8,12.8,12.8h87.893c2.56,0,4.267,1.707,4.267,4.267
	c0,2.56-1.707,4.267-4.267,4.267H21.333c-6.827,0-12.8,5.973-12.8,12.8v12.8h115.2c2.56,0,4.267,1.707,4.267,4.267
	C128,503.893,126.293,503.893,123.733,503.893z M355.84,398.934c-0.853,0-0.853,0-1.707,0c-2.56-0.853-3.413-3.413-2.56-5.973
	c2.56-5.12,4.267-10.24,6.827-14.507c8.533-16.213,16.213-32.427,16.213-62.293c-9.387-1.707-17.067-10.24-17.067-20.48
	c0-11.947,9.387-21.333,21.333-21.333h34.133c25.6,0,46.933-21.333,46.933-46.933s-21.333-46.933-46.933-46.933
	s-46.933,21.333-46.933,46.933c0,6.827,1.707,13.653,4.267,19.627c0.853,2.56,0,4.267-1.707,5.973c-2.56,0.853-4.267,0-5.973-1.707
	c-3.413-7.68-5.12-15.36-5.12-23.04c0-30.72,24.747-55.467,55.467-55.467s55.467,24.747,55.467,55.467
	c0,19.627-10.24,36.693-25.6,46.933h4.267c11.947,0,21.333,9.387,21.333,21.333c0,11.947-9.387,21.333-21.333,21.333h-34.133
	c-2.56,0-4.267-1.707-4.267-4.267c0-2.56,1.707-4.267,4.267-4.267h34.133c6.827,0,12.8-5.973,12.8-12.8
	c0-6.827-5.973-12.8-12.8-12.8H378.88c-6.827,0-12.8,5.973-12.8,12.8c0,6.827,5.973,12.8,12.8,12.8c2.56,0,4.267,1.707,4.267,4.267
	c0,34.987-8.533,52.907-17.92,69.973c-2.56,4.267-4.267,9.387-6.827,14.507C359.253,398.08,357.547,398.934,355.84,398.934z
	 M147.627,398.934c-1.707,0-3.413-0.853-4.267-2.56c-2.56-5.12-4.267-9.387-6.827-14.507c-5.973-11.093-11.093-23.04-14.507-40.107
	c-0.853-2.56,0.853-4.267,3.413-5.12c2.56-0.853,4.267,0.853,5.12,3.413c3.413,15.36,8.533,26.453,13.653,37.547
	c2.56,5.12,5.12,9.387,6.827,14.507c0.853,2.56,0,4.267-2.56,5.973C148.48,398.934,148.48,398.934,147.627,398.934z M294.4,264.96
	h-51.2c-2.56,0-4.267-1.707-4.267-4.267c0-2.56,1.707-4.267,4.267-4.267h51.2c6.827,0,12.8-5.973,12.8-12.8s-5.973-12.8-12.8-12.8
	c-1.707,0-2.56-0.853-3.413-1.707c-0.853-0.853-0.853-2.56-0.853-3.413l17.067-81.92c-6.827-4.267-28.16-14.507-54.613-14.507
	c-26.453,0-47.787,11.093-54.613,14.507l10.24,52.053c0.853,2.56-0.853,4.267-3.413,5.12c-2.56,0.853-4.267-0.853-5.12-3.413
	l-11.093-55.467c0-1.707,0-3.413,1.707-4.267c0.853-0.853,27.307-17.92,62.293-17.92s60.587,17.067,62.293,17.92
	c1.707,0.853,2.56,2.56,1.707,4.267l-17.067,81.067c9.387,2.56,16.213,11.093,16.213,20.48
	C315.733,255.573,306.347,264.96,294.4,264.96z M251.733,94.293c-2.56,0-4.267-1.707-4.267-4.267V43.093H217.6
	c-2.56,0-4.267-1.707-4.267-4.267s1.707-4.267,4.267-4.267h29.867V4.693c0-2.56,1.707-4.267,4.267-4.267
	c2.56,0,4.267,1.707,4.267,4.267V34.56h29.867c2.56,0,4.267,1.707,4.267,4.267s-1.707,4.267-4.267,4.267H256v46.933
	C256,92.587,254.293,94.293,251.733,94.293z"/>
</svg>